<?xml version="1.0" encoding="utf-8"?>
<!-- Generator: Adobe Illustrator 16.0.0, SVG Export Plug-In . SVG Version: 6.00 Build 0)  -->
<!DOCTYPE svg PUBLIC "-//W3C//DTD SVG 1.1//EN" "http://www.w3.org/Graphics/SVG/1.1/DTD/svg11.dtd">
<svg version="1.1" xmlns="http://www.w3.org/2000/svg" xmlns:xlink="http://www.w3.org/1999/xlink" x="0px" y="0px" width="960px"
	 height="350px" viewBox="0 0 960 350" enable-background="new 0 0 960 350" xml:space="preserve">
<g id="Layer_1">
	<g>
		<g>
			<path fill="#FFFFFF" d="M390.814,239.97c5.75,2.216,15.483,4.204,21.675,4.204c26.32,0,43.13-12.162,43.13-27.646
				c0-11.501-12.165-19.464-34.062-23.224c-25.435-4.204-39.812-14.822-39.812-29.86c0-19.021,19.465-34.281,49.765-34.281
				c7.078,0,17.918,1.988,24.332,4.643l-2.654,6.192c-5.751-2.21-15.483-4.204-21.678-4.204c-26.318,0-43.128,12.167-43.128,27.65
				c0,11.5,12.165,19.463,34.062,23.223c25.435,4.204,39.812,14.816,39.812,29.86c0,19.021-19.465,34.282-49.767,34.282
				c-7.078,0-17.916-1.989-24.33-4.644L390.814,239.97z"/>
			<path fill="#FFFFFF" d="M412.489,262.178c-8.763,0-21.091-2.363-28.677-5.506l-10.634-4.401l11.499-26.846l10.223,3.938
				c4.679,1.806,13.062,3.443,17.589,3.443c18.107,0,31.763-6.996,31.763-16.277c0-3.878-7.612-9.098-24.618-12.019
				c-14.76-2.438-49.256-11.349-49.256-41.065c0-26.451,25.71-45.649,61.132-45.649c8.764,0,21.093,2.369,28.679,5.506l10.638,4.404
				l-11.502,26.833l-10.216-3.928c-4.692-1.806-13.081-3.449-17.598-3.449c-18.106,0-31.76,7.001-31.76,16.282
				c0,3.881,7.612,9.102,24.618,12.023c14.76,2.438,49.256,11.349,49.256,41.061C473.624,242.979,447.913,262.178,412.489,262.178z"
				/>
			<path fill="#FFFFFF" d="M511.132,51.749v197.512h-6.636V51.749H511.132z M517.769,143.758v-7.52
				c9.068-4.865,19.906-7.741,30.302-7.741c19.463,0,38.264,9.291,45.783,29.638c1.99,5.087,2.876,9.952,2.876,15.482v75.643h-6.636
				v-75.199c0-5.085-0.664-8.845-2.433-13.493c-6.414-17.471-22.783-25.435-39.812-25.435
				C537.23,135.134,526.615,138.232,517.769,143.758z"/>
			<path fill="#FFFFFF" d="M608.098,260.629h-29.372v-86.567c0-3.744-0.427-6.132-1.688-9.447
				c-6.01-16.359-22.413-18.113-29.189-18.113c-8.393,0-16.937,2.452-24.059,6.898l-1.29,0.809v106.42h-29.372V40.381H522.5v81.342
				c8.274-2.993,17.069-4.594,25.57-4.594c26.367,0,47.998,14.205,56.445,37.067c2.42,6.175,3.582,12.411,3.582,19.421V260.629z"/>
			<path fill="#FFFFFF" d="M648.709,130.708v118.553h-6.636V130.708H648.709z"/>
			<rect x="630.448" y="119.841" fill="#FFFFFF" width="29.372" height="141.286"/>
			<path fill="#FFFFFF" d="M702.012,130.708v118.553h-6.637V130.708H702.012z M708.647,143.758v-7.52
				c9.288-5.087,20.348-7.741,30.744-7.741c19.685,0,38.485,9.952,45.785,29.638c1.327,3.538,2.654,7.297,2.654,15.482v75.643
				h-6.636v-75.643c0-25.211-21.897-38.484-41.804-38.484C728.773,135.134,717.494,138.232,708.647,143.758z"/>
			<path fill="#FFFFFF" d="M799.199,260.629h-29.372v-87.011c0-19.754-18.668-27.116-30.436-27.116
				c-8.565,0-17.807,2.581-24.722,6.898l-1.291,0.809v106.42h-29.372V119.34h29.372v2.354c8.263-2.973,17.205-4.564,26.013-4.564
				c26.34,0,47.968,14.2,56.444,37.054c1.765,4.707,3.363,9.767,3.363,19.434V260.629z"/>
			<path fill="#FFFFFF" d="M923.856,177.6c0-18.581-14.6-42.466-42.467-42.466c-18.804,0-46.005,14.816-46.005,54.411
				c0,26.317,22.336,53.968,68.785,53.968c4.204,0,8.847-0.444,13.494-0.888v6.636c-4.869,0.444-9.734,0.888-14.155,0.888
				c-49.104,0-74.76-29.86-74.76-60.604c0-46.009,32.51-61.047,52.641-61.047c31.405,0,49.542,24.33,49.542,55.738h-88.693
				c0-2.21,0.222-4.426,0.666-6.636H923.856z"/>
			<path fill="#FFFFFF" d="M903.509,261.517c-25.724,0-47.647-7.499-63.402-21.694c-14.656-13.199-22.726-31.055-22.726-50.277
				c0-53.128,38.277-72.416,64.009-72.416c35.862,0,60.91,27.596,60.91,67.106v11.368h-95.026
				c3.209,18.576,21.317,36.541,56.896,36.541c3.656,0,7.901-0.404,12.396-0.834l12.448-1.188l0.018,29.52l-10.337,0.942
				C913.648,261.043,908.442,261.517,903.509,261.517z M851.47,166.232h58.681c-4.059-10.083-13.466-19.731-28.761-19.731
				C872.812,146.501,858.76,151.115,851.47,166.232z"/>
			<path fill="#1B75BB" d="M311.263,149.968c14.136,14.135,14.136,37.046,0,51.184L197.522,314.896
				c-14.131,14.136-37.051,14.121-51.182,0L32.601,201.151c-14.136-14.138-14.136-37.049,0-51.184L146.34,36.227
				c14.131-14.133,37.052-14.128,51.182,0L311.263,149.968z"/>
			<g>
				<path fill="#FFFFFF" d="M155.357,148.418v-56.54h32.757v56.54l51.314-28.261l16.57,27.134l-51.305,28.26l51.305,28.279
					l-16.57,27.13l-51.314-28.268v56.536h-32.757v-56.536l-51.312,28.268l-16.181-27.13l50.913-28.279l-50.913-28.26l16.181-27.134
					L155.357,148.418z"/>
			</g>
		</g>
		<circle fill="#FFFFFF" cx="645.909" cy="87.392" r="20.21"/>
	</g>
</g>
<g id="Layer_2" display="none">
</g>
</svg>
